<?xml version="1.0" encoding="UTF-8"?>
<svg version="1.1" xmlns="http://www.w3.org/2000/svg" width="192" height="192">
<path d="M0 0 C63.36 0 126.72 0 192 0 C192 63.36 192 126.72 192 192 C128.64 192 65.28 192 0 192 C0 128.64 0 65.28 0 0 Z " fill="#FBF9F9" transform="translate(0,0)"/>
<path d="M0 0 C16.5 0 33 0 50 0 C50 63.36 50 126.72 50 192 C34.49 192 18.98 192 3 192 C5.58968864 190.27354091 7.92652178 189.12890493 10.75 187.875 C18.08215435 184.2196111 23.28440904 178.37806703 26.33984375 170.74609375 C28.41343581 162.12044159 28.17555749 152.17392326 24.328125 144.11328125 C19.82808147 136.95291787 13.6219564 132.84878256 5.875 129.75 C-2.37382277 128.15345366 -10.03476227 128.46560618 -18 131 C-20.25563556 127.4000315 -22.48318022 123.78414663 -24.68945312 120.15380859 C-25.61435749 118.63378133 -26.54311229 117.11609374 -27.47460938 115.60009766 C-29.01944598 113.07578766 -30.54266155 110.53942426 -32.0625 108 C-32.56370361 107.18748779 -33.06490723 106.37497559 -33.58129883 105.5378418 C-34.04044678 104.762229 -34.49959473 103.98661621 -34.97265625 103.1875 C-35.38781494 102.50042969 -35.80297363 101.81335938 -36.23071289 101.10546875 C-37.24388739 98.33250244 -36.87803285 96.79212219 -36 94 C-34.9753418 92.23339844 -34.9753418 92.23339844 -33.69921875 90.609375 C-33.22299072 89.99143066 -32.7467627 89.37348633 -32.25610352 88.73681641 C-31.73846436 88.08116699 -31.2208252 87.42551758 -30.6875 86.75 C-29.58384138 85.31671578 -28.48234229 83.88176655 -27.3828125 82.4453125 C-26.81852539 81.70958008 -26.25423828 80.97384766 -25.67285156 80.21582031 C-23.05192932 76.74420761 -20.55416923 73.18999088 -18.0625 69.625 C-13.86289612 63.62912169 -9.61141074 57.67510219 -5.3125 51.75 C7.64176302 36.30506516 7.64176302 36.30506516 12 18 C10.35820512 12.49515835 7.46092474 8.92572553 3.62109375 4.796875 C2 3 2 3 0 0 Z " fill="#500606" transform="translate(142,0)"/>
<path d="M0 0 C15.18 0 30.36 0 46 0 C40 7 40 7 37.75 9.5625 C34.5189854 14.06284176 33.27584542 18.97814687 33.44921875 24.48046875 C34.52934259 29.42146078 37.6751006 33.20073778 40.65625 37.19384766 C42.11775362 39.15827422 43.54496865 41.14479388 44.96875 43.13671875 C47.7266012 46.98835458 50.50736966 50.8227885 53.29443359 54.65332031 C56.03862943 58.42904468 58.76883095 62.21484798 61.5 66 C64.87689082 70.67724118 68.2552502 75.35341078 71.63671875 80.02734375 C72.23097656 80.84912109 72.82523437 81.67089844 73.4375 82.51757812 C74.57897791 84.09602805 75.72088482 85.67416785 76.86328125 87.25195312 C77.63285156 88.31639648 77.63285156 88.31639648 78.41796875 89.40234375 C79.09508911 90.33808228 79.09508911 90.33808228 79.78588867 91.29272461 C83.01104733 95.82792157 83.01104733 95.82792157 82.85473633 98.26269531 C81.77788641 101.71132178 80.13821696 104.69591843 78.32421875 107.796875 C77.95778763 108.43111389 77.59135651 109.06535278 77.21382141 109.71881104 C76.43997577 111.05217815 75.66232471 112.38334314 74.88110352 113.71240234 C73.68789545 115.74932493 72.51646922 117.79777223 71.34570312 119.84765625 C70.58983783 121.1439858 69.83271879 122.43958531 69.07421875 123.734375 C68.55211067 124.65461456 68.55211067 124.65461456 68.01945496 125.59344482 C65.53733602 129.75253677 65.53733602 129.75253677 62.93676758 130.95019531 C60.47262515 131.01356164 58.44697897 130.22212217 56.1171875 129.4921875 C47.18096011 127.41476194 39.73345459 129.39176992 31.9375 133.6875 C25.64790598 138.63888253 20.68012659 144.50140389 18.3125 152.25 C17.06473967 163.23029089 18.97556716 172.16928443 26 181 C31.19923523 186.1738111 36.5939803 189.91087946 44 191 C44 191.33 44 191.66 44 192 C29.48 192 14.96 192 0 192 C0 128.64 0 65.28 0 0 Z " fill="#500606" transform="translate(0,0)"/>
<path d="M0 0 C30.36 0 60.72 0 92 0 C90.52311947 3.69220133 89.09146659 6.76049445 87.12109375 10.15625 C86.53811523 11.16421631 85.95513672 12.17218262 85.35449219 13.21069336 C84.72188477 14.29616455 84.08927734 15.38163574 83.4375 16.5 C82.77782227 17.63767822 82.11814453 18.77535645 81.43847656 19.94750977 C75.69064947 29.85380073 69.90078872 39.73595412 64.09130859 49.60620117 C60.87704269 55.06996402 57.67883901 60.54085412 54.55078125 66.0546875 C53.78362793 67.40252319 53.78362793 67.40252319 53.00097656 68.77758789 C52.0680786 70.42155931 51.14125886 72.0690006 50.22167969 73.72045898 C49.20305138 75.51286087 48.10991549 77.26264691 47 79 C46.34 79 45.68 79 45 79 C44.58339111 78.26700684 44.16678223 77.53401367 43.73754883 76.77880859 C36.69189708 64.39167755 29.64627134 52.00660258 22.375 39.75 C21.86195312 38.8849585 21.34890625 38.01991699 20.8203125 37.12866211 C19.77104998 35.35999407 18.72173306 33.5913583 17.67236328 31.82275391 C14.53966401 26.5351234 11.42208708 21.23875028 8.3125 15.9375 C7.71163574 14.91946289 7.11077148 13.90142578 6.49169922 12.85253906 C5.93369629 11.89959961 5.37569336 10.94666016 4.80078125 9.96484375 C4.30747314 9.1255835 3.81416504 8.28632324 3.3059082 7.42163086 C2 5 2 5 0 0 Z " fill="#510606" transform="translate(48,0)"/>
<path d="M0 0 C0.66 0 1.32 0 2 0 C3.2175293 1.40185547 3.2175293 1.40185547 4.57421875 3.3671875 C5.07453613 4.08293945 5.57485352 4.79869141 6.09033203 5.53613281 C7.16161855 7.10490763 8.23159056 8.67458085 9.30029297 10.24511719 C11.60573937 13.61972572 13.84953699 16.82955183 16.55859375 19.8984375 C18.6532406 22.2821377 20.07836926 23.95715566 21 27 C19.93391029 30.48407189 18.36435748 33.38140859 16.59375 36.5625 C13.36697347 43.52221408 14.05783058 51.51702583 16.0625 58.8125 C19.33055112 67.01317033 25.07915969 73.19159597 33 77 C36.30392016 78.29904008 36.30392016 78.29904008 39 79 C39 79.33 39 79.66 39 80 C13.26 80 -12.48 80 -39 80 C-39 79.67 -39 79.34 -39 79 C-38.45472656 78.85304688 -37.90945312 78.70609375 -37.34765625 78.5546875 C-27.61006046 75.65837696 -21.22535325 71.5117391 -16.19140625 62.5625 C-12.73672907 55.13211235 -11.86793873 48.13025821 -13 40 C-14.18147893 37.85660902 -15.43334122 35.750611 -16.75 33.6875 C-18.43359375 30.4921875 -18.43359375 30.4921875 -19 27 C-16.82579346 21.2592245 -12.51645369 16.56460014 -8.59716797 11.93261719 C-6.48704306 9.37930798 -4.69648195 6.70301883 -2.875 3.9375 C-1.3046875 1.58984375 -1.3046875 1.58984375 0 0 Z " fill="#520808" transform="translate(93,112)"/>
<path d="M0 0 C5.07810376 2.26595618 8.93230342 5.35225489 12 10 C12.6875 12.6875 12.6875 12.6875 13 16 C13.08765625 16.68320313 13.1753125 17.36640625 13.265625 18.0703125 C13.70986203 23.86558649 12.23610276 27.42549123 8.75390625 32.046875 C5.21190646 35.99119548 2.4019857 37.69288204 -2.90234375 38.37109375 C-7.61027116 38.56313529 -11.06714615 38.43187678 -15.375 36.4375 C-24.65835345 27.81724323 -24.65835345 27.81724323 -25.203125 21.73046875 C-25.30193223 16.37017669 -25.20686407 12.5096526 -22 8 C-14.90104779 1.00266878 -10.16045318 -1.33231433 0 0 Z " fill="#530909" transform="translate(55,141)"/>
<path d="M0 0 C4.66607749 3.37527475 8.74109838 7.27798265 10.58984375 12.82421875 C11.38775445 19.24170049 10.81184429 23.83270531 7.015625 29.13671875 C3.22539005 33.62269546 -0.81612177 36.35786479 -6.66796875 37.1171875 C-13.16792438 37.48492199 -17.51483765 36.16556365 -22.41015625 31.82421875 C-26.99057123 25.95189185 -27.88705401 21.20946208 -27.81640625 13.90625 C-27.06673883 8.2188693 -24.0042455 5.14767782 -19.875 1.44921875 C-14.27806442 -2.51126637 -6.11153484 -2.9814781 0 0 Z " fill="#530909" transform="translate(147.41015625,142.17578125)"/>
</svg>
