<!DOCTYPE svg PUBLIC "-//W3C//DTD SVG 1.1//EN" "http://www.w3.org/Graphics/SVG/1.1/DTD/svg11.dtd">
<!-- Uploaded to: SVG Repo, www.svgrepo.com, Transformed by: SVG Repo Mixer Tools -->
<svg height="64px" width="64px" version="1.1" id="_x32_" xmlns="http://www.w3.org/2000/svg" xmlns:xlink="http://www.w3.org/1999/xlink" viewBox="0 0 512 512" xml:space="preserve" fill="#000000" transform="rotate(180)">
<g id="SVGRepo_bgCarrier" stroke-width="0"/>
<g id="SVGRepo_tracerCarrier" stroke-linecap="round" stroke-linejoin="round"/>
<g id="SVGRepo_iconCarrier"> <style type="text/css"> .st0{fill:#000000;} </style> <g> <polygon class="st0" points="125.1,176.84 125.084,176.832 124.47,176.777 "/> <path class="st0" d="M467.126,80.604c-1.038-11.458-4.247-22.286-9.169-32.005c-7.376-14.595-18.605-26.73-32.258-35.222 C412.079,4.883,395.959,0,378.973,0c-2.642,0-5.332,0.118-8.052,0.37l0.724-0.071l-0.756,0.071 c-11.465,1.038-22.286,4.246-32.005,9.169c-14.595,7.384-26.721,18.622-35.214,32.25c-8.508,13.627-13.384,29.748-13.368,46.734 c0,2.673,0.11,5.378,0.362,8.084c1.038,11.465,4.23,22.285,9.169,32.005c3.979,7.879,9.09,15.036,15.098,21.295 c1.919,3.947,2.863,10.694-3.272,20.595l-27.192,38.053c-10.742,14.108-19.912,18.283-28.467,19.99 c-8.556-1.706-17.709-5.882-28.466-19.99l-27.177-38.053c-6.134-9.9-5.191-16.648-3.287-20.595 c2.296-2.391,4.467-4.914,6.495-7.557c9.798-12.81,16.23-28.537,17.788-45.743c0.236-2.706,0.361-5.411,0.361-8.084 c0-11.324-2.17-22.271-6.133-32.336c-5.945-15.098-15.917-28.246-28.718-38.028C174.044,8.359,158.317,1.919,141.126,0.37 C138.405,0.118,135.7,0,133.026,0c-11.324,0-22.27,2.163-32.336,6.126C85.592,12.087,72.444,22.058,62.662,34.86 C52.879,47.67,46.431,63.405,44.89,80.604v-0.008c-0.251,2.713-0.377,5.41-0.377,8.092c0,11.323,2.17,22.262,6.134,32.327 c5.945,15.114,15.916,28.254,28.734,38.045c12.786,9.783,28.514,16.215,45.704,17.772l0.032,0.008 c2.706,0.244,5.394,0.362,8.084,0.362c7.832,0,15.476-1.062,22.789-3.012c9.216,0.574,14.123,5.395,18.008,11.128 c4.262,6.275,31.628,45.892,42.465,61.58c-5.473,7.321-11.293,17.961-17.662,33.531c-15.648,38.241-49.038,101.324-61.982,168.96 c-4.058,21.248-5.394,55.77,5.316,62.611C169.122,468.286,221.148,377.137,256,315.564 C290.868,377.137,342.878,468.286,369.882,512c10.694-6.841,9.374-41.363,5.3-62.611c-12.928-67.636-46.317-130.719-61.982-168.96 c-6.37-15.57-12.188-26.21-17.662-33.531c10.852-15.688,38.202-55.305,42.464-61.58c3.884-5.726,8.792-10.538,17.976-11.128 c7.329,1.966,14.972,3.012,22.837,3.012c2.673,0,5.363-0.118,8.068-0.362h0.016c11.465-1.038,22.286-4.238,32.006-9.169 c14.579-7.392,26.721-18.614,35.213-32.249c8.493-13.636,13.385-29.749,13.369-46.734 C467.487,86.006,467.377,83.308,467.126,80.604z M188.859,93.665c-0.66,7.306-2.689,14.084-5.787,20.21 c-4.64,9.185-11.765,16.884-20.398,22.27c-8.65,5.379-18.747,8.438-29.474,8.438c-1.698,0-3.413-0.079-5.158-0.236 c-7.297-0.668-14.076-2.681-20.194-5.78c-9.201-4.647-16.892-11.772-22.27-20.398c-5.379-8.65-8.446-18.739-8.446-29.481 c0-1.699,0.079-3.414,0.236-5.135c0.661-7.313,2.674-14.092,5.772-20.218c4.656-9.193,11.765-16.891,20.415-22.262 c8.65-5.387,18.732-8.446,29.473-8.446c1.699,0,3.413,0.07,5.128,0.228l0.016,0.008c7.313,0.66,14.092,2.674,20.21,5.772 c9.184,4.647,16.891,11.764,22.27,20.414c5.379,8.643,8.445,18.732,8.445,29.474C189.095,90.212,189.017,91.927,188.859,93.665z M431.015,109.07c-3.743,9.523-10.097,17.874-18.181,24.055c-8.116,6.197-17.93,10.224-28.876,11.222 c-1.746,0.157-3.46,0.236-5.143,0.236c-7.172,0-14.029-1.368-20.384-3.869c-9.531-3.736-17.882-10.074-24.063-18.173 c-6.196-8.115-10.223-17.914-11.229-28.876c-0.157-1.738-0.236-3.452-0.236-5.142c0-7.164,1.368-14.029,3.869-20.383 c3.743-9.515,10.097-17.874,18.181-24.063c8.115-6.196,17.93-10.223,28.892-11.213l0.015-0.008 c1.699-0.158,3.413-0.228,5.112-0.228c7.172,0,14.029,1.36,20.383,3.853c9.531,3.751,17.882,10.089,24.062,18.189 c6.197,8.115,10.224,17.92,11.214,28.883c0.173,1.722,0.252,3.444,0.252,5.135C434.884,95.859,433.5,102.716,431.015,109.07z"/> </g> </g>
</svg>